<?xml version="1.0" encoding="UTF-8" standalone="no"?>
<!DOCTYPE svg PUBLIC "-//W3C//DTD SVG 1.1//EN"
 "http://www.w3.org/Graphics/SVG/1.1/DTD/svg11.dtd">
<!-- Generated by graphviz version 12.1.1 (20240910.0053)
 -->
<!-- Title: INFRA Pages: 1 -->
<svg width="332pt" height="80pt"
 viewBox="0.00 0.00 332.33 80.00" xmlns="http://www.w3.org/2000/svg" xmlns:xlink="http://www.w3.org/1999/xlink">
<g id="graph0" class="graph" transform="scale(1 1) rotate(0) translate(4 76)">
<title>INFRA</title>
<polygon fill="white" stroke="none" points="-4,4 -4,-76 328.33,-76 328.33,4 -4,4"/>
<!-- MongoDB -->
<g id="node1" class="node">
<title>MongoDB</title>
<path fill="#ffcfb3" stroke="black" stroke-width="2" d="M155.29,-65.45C155.29,-69.07 120.49,-72 77.64,-72 34.8,-72 0,-69.07 0,-65.45 0,-65.45 0,-6.55 0,-6.55 0,-2.93 34.8,0 77.64,0 120.49,0 155.29,-2.93 155.29,-6.55 155.29,-6.55 155.29,-65.45 155.29,-65.45"/>
<path fill="none" stroke="black" stroke-width="2" d="M155.29,-65.45C155.29,-61.84 120.49,-58.91 77.64,-58.91 34.8,-58.91 0,-61.84 0,-65.45"/>
<text text-anchor="middle" x="77.64" y="-40.2" font-family="Arial" font-size="14.00">MongoDB</text>
<text text-anchor="middle" x="77.64" y="-23.4" font-family="Arial" font-size="14.00">(MongoDB::Database)</text>
</g>
<!-- UploadStorage -->
<g id="node2" class="node">
<title>UploadStorage</title>
<path fill="#fff5cd" stroke="black" stroke-width="2" d="M324.33,-65.45C324.33,-69.07 290.41,-72 248.64,-72 206.88,-72 172.96,-69.07 172.96,-65.45 172.96,-65.45 172.96,-6.55 172.96,-6.55 172.96,-2.93 206.88,0 248.64,0 290.41,0 324.33,-2.93 324.33,-6.55 324.33,-6.55 324.33,-65.45 324.33,-65.45"/>
<path fill="none" stroke="black" stroke-width="2" d="M324.33,-65.45C324.33,-61.84 290.41,-58.91 248.64,-58.91 206.88,-58.91 172.96,-61.84 172.96,-65.45"/>
<text text-anchor="middle" x="248.64" y="-40.2" font-family="Arial" font-size="14.00">UploadStorage</text>
<text text-anchor="middle" x="248.64" y="-23.4" font-family="Arial" font-size="14.00">(FileSystem::Storage)</text>
</g>
</g>
</svg>
